PathFileType	4	(X/Y/Z)	C:/Users/beibeiliu/ov580/test_trc\sequence.17_training_dense_left.trc
DataRate	CameraRate	NumFrames	NumMarkers	Units	OrigDataRate	OrigDataStartFrame	OrigNumFrames
120	120	16	19	mm	120	27	78
Frame#	Time	ThumbCMC			ThumbMCP			ThumbIP			ThumbTip			IndexMCP			IndexPIP			IndexTip			MiddleMCP			MiddlePIP			MiddleTip			RingMCP			RingPIP			RingTip			PinkyMCP			PinkyPIP			PinkyTip			BackHand1			BackHand2			BackHand3	
		X0	Y0	Z0	X1	Y1	Z1	X2	Y2	Z2	X3	Y3	Z3	X4	Y4	Z4	X5	Y5	Z5	X6	Y6	Z6	X7	Y7	Z7	X8	Y8	Z8	X9	Y9	Z9	X10	Y10	Z10	X11	Y11	Z11	X12	Y12	Z12	X13	Y13	Z13	X14	Y14	Z14	X15	Y15	Z15	X16	Y16	Z16	X17	Y17	Z17	X18	Y18	Z18	
26	0.216667	-212.626	60.3038	24.4395	-215.642	91.2576	20.0976	-206.214	111.215	13.4061	-194.44	129.265	11.8129	-183.996	94.9464	-18.8655	-177.555	121.639	-8.72597	-184.156	124.357	18.293	-151.591	87.3956	-20.0833	-147.257	105.96	-32.0589	-136.153	125.492	-41.6844	-138.29	80.1997	-7.79775	-125.2	95.4825	-17.954	-113.581	109.572	-28.6471	-127.018	72.2678	19.1059	-113.524	85.5434	12.0137	-98.7035	88.9479	8.38819	-156.097	46.9869	16.9287	-167.668	25.7998	34.6414	-186.587	40.7828	12.4113	
27	0.225	-202.786	56.0637	25.657	-216.273	83.9171	16.1954	-211.987	106.511	-0.14575	-203.854	127.179	-6.34673	-182.612	84.264	-26.9582	-189.087	114.914	-22.9889	-187.587	120.402	4.10584	-157.918	80.5475	-33.5684	-149.916	96.7428	-49.0905	-147.942	117.428	-67.6046	-137.126	78.4235	-15.4013	-128.124	93.8643	-33.9256	-121.275	103.496	-45.5543	-123.957	80.0385	8.92637	-117.969	91.1361	-1.19203	-102.439	100.516	-10.3002	-153.835	50.2632	15.5463	-156.305	35.2964	37.844	-175.871	40.5969	12.9531	
28	0.233333	-202.977	57.9956	23.1862	-211.106	80.9753	11.6874	-211.661	98.7685	-6.94585	-205.456	116.171	-18.959	-185.695	74.8986	-35.6222	-189.253	101.82	-36.8693	-190.015	113.443	-5.70429	-161.514	66.5309	-37.1452	-157.011	79.2602	-62.875	-152.376	93.0611	-79.0603	-140.263	72.1105	-27.6251	-135.117	79.2084	-48.7984	-130.125	86.3568	-63.8805	-126.838	79.0364	-5.59513	-115.485	89.9798	-17.6172	-103.532	94.3508	-29.9917	-146.211	52.3014	11.1223	-153.07	40.9269	39.2673	-172.802	38.4871	17.3937	
29	0.241667	-203.133	61.2155	27.6948	-210.846	80.6817	5.64887	-217.632	94.2196	-13.7346	-209.036	109.908	-31.3061	-187.112	62.2718	-36.283	-193.418	90.0478	-44.6889	-195.733	105.394	-16.6245	-160.744	54.5471	-40.6841	-160.42	61.1784	-64.7504	-158.821	70.4489	-90.3839	-145.264	59.1382	-30.2846	-140.038	61.1162	-52.1673	-133.057	63.083	-69.6304	-130.972	69.8398	-13.326	-118.614	73.9882	-29.1913	-109.324	74.5866	-44.0783	-153.628	49.335	14.8367	-155.273	46.4529	38.1963	-176.802	39.0095	21.5282	
30	0.25	-203.045	61.05	25.087	-216.566	77.6486	1.24984	-213.625	86.4866	-16.8369	-205.896	95.862	-39.3726	-196.256	49.8482	-38.6628	-192.136	72.7061	-49.4318	-190.691	95.5671	-24.2188	-167.889	38.0579	-35.2346	-165.517	38.926	-62.5066	-162.48	42.9821	-85.2202	-150.891	37.8456	-28.6846	-144.8	34.9116	-50.5569	-146.445	31.3405	-70.3722	-133.382	50.155	-14.1201	-124.898	48.55	-28.0997	-114.559	41.1895	-47.5613	-153.801	39.5864	15.2066	-157.938	43.4933	42.3872	-181.16	35.8638	25.4458	
31	0.258333	-207.948	60.7589	29.3794	-218.931	74.6946	1.52804	-215.708	76.0543	-18.7025	-212.206	81.1145	-43.693	-200.405	33.6431	-33.0773	-198.682	54.042	-49.2527	-193.092	80.2986	-33.4416	-181.409	17.0661	-31.664	-179.688	15.0891	-56.1745	-177.94	14.4132	-81.7958	-160.383	18.0132	-18.3981	-160.924	9.29867	-38.4188	-160.562	2.02457	-61.3237	-142.407	28.1318	-4.92976	-134.69	16.7705	-23.0667	-132.285	9.0552	-37.6758	-164.634	28.0751	23.0068	-167.698	38.3592	48.119	-194.52	33.0498	30.7526	
32	0.266667	-206.796	65.0554	32.0561	-212.146	75.2548	5.50471	-214.258	75.4074	-18.2886	-209.586	70.4283	-39.9168	-216.18	29.7862	-19.4095	-204.287	42.7966	-44.1123	-188.209	66.2967	-36.2997	-199.43	8.25658	-17.2324	-201.759	0.711816	-43.5179	-199.628	3.93294	-70.972	-184.852	3.07718	-6.50315	-186.444	-8.93583	-26.67	-188.474	-11.9725	-50.2999	-160.728	5.37377	3.51593	-166.149	-7.21124	-13.7841	-166.445	-15.7457	-34.5533	-177.661	18.0621	30.6749	-176.243	32.4569	54.7938	-197.933	33.5351	39.7112	
33	0.275	-195.755	78.8587	40.4284	-195.696	84.7747	10.739	-201.853	83.9141	-13.9197	-202.668	80.7457	-31.0254	-225.452	50.5112	-10.2924	-213.537	55.3149	-36.1643	-186.185	66.7757	-32.8611	-229.352	30.2435	-9.31723	-235.018	27.2312	-34.5124	-228.326	31.7479	-60.3478	-218.526	14.5932	2.40501	-227.568	8.09805	-17.8285	-228.035	10.7422	-44.6046	-199.657	2.24138	11.8354	-211.636	-0.49662	-5.1015	-217.232	-4.70769	-25.0487	-200.994	24.5862	38.3122	-192.124	29.9137	59.5769	-209.829	45.3529	48.4267	
34	0.283333	-176.2	77.7754	46.0715	-169.361	85.4804	16.8917	-174.137	92.7258	-3.15949	-181.145	96.4258	-24.9356	-217.315	100.54	4.61496	-206.952	97.6298	-25.3651	-188.185	82.6804	-29.0779	-239.506	89.8074	5.4813	-247.229	98.2336	-20.6401	-238.534	100.761	-48.6838	-243.536	64.1558	14.9891	-257.335	79.2788	-4.39038	-257.52	84.2096	-29.7273	-234.857	40.4099	19.3314	-255.088	53.7228	7.38775	-262.11	63.8016	-10.6734	-221.3	51.8859	42.7434	-208.684	41.5719	64.8192	-210.008	68.3477	55.4243	
35	0.291667	-169.777	70.3535	40.1706	-164.19	80.6008	9.81575	-165.128	88.5919	-8.26453	-168.565	96.1049	-29.7241	-196.121	121.35	6.01339	-188.3	116.296	-24.0898	-183.356	92.4433	-29.3705	-225.282	121.573	9.35696	-225.346	139.28	-10.7222	-224.404	148.837	-35.8218	-238.986	102.93	18.4025	-246.21	126.318	6.23411	-248.056	138.994	-10.4848	-247.314	82.1619	21.6269	-258.165	100.086	15.6621	-267.188	112.081	6.89402	-227.619	76.8471	40.4052	-220.678	58.4024	59.4084	-202.75	79.0824	53.0091	
36	0.3	-168.038	65.7541	32.4746	-160.36	72.818	3.12044	-158.168	80.3279	-15.9274	-155.525	88.6842	-39.9624	-181.8	122.168	-2.72438	-179.719	118.763	-29.4068	-182.6	89.456	-34.1925	-203.091	131.149	4.8419	-200.442	148.818	-12.178	-205.115	162.627	-34.8703	-222.803	119.732	12.9212	-223.865	140.674	4.57913	-224.421	164.4	-7.91572	-237.305	106.471	15.7313	-242.432	123.205	12.6754	-252.919	140.211	11.7277	-221.848	88.5856	36.4668	-218.377	72.975	53.7445	-195.542	85.251	46.2495	
37	0.308333	-166.103	64.1503	24.5269	-155.505	66.5308	-4.41449	-153.05	70.4899	-23.2043	-150.893	77.0443	-47.2344	-168.068	118.536	-17.6508	-170.168	107.279	-41.5576	-176.233	79.2023	-36.7024	-189.12	130.679	-5.39489	-185.498	148.12	-24.7927	-187.295	161.803	-45.501	-209.185	126.872	3.89534	-203.676	149.572	-6.47307	-207.225	170.141	-14.2177	-227.017	111.611	10.5254	-230.947	130.614	6.29823	-230.333	146.784	8.25615	-206.628	95.0639	31.7283	-213.422	81.1642	49.4916	-181.57	89.493	38.5665	
38	0.316667	-163.158	60.4532	20.3391	-150.808	53.3799	-8.74931	-148.449	58.3401	-31.3992	-153.767	62.5617	-50.8014	-158.803	106.065	-26.1209	-163.49	90.4445	-51.5854	-177.796	67.901	-39.3349	-172.935	123.605	-19.0498	-173.584	138.724	-41.262	-175.426	151.939	-65.2678	-193.189	125.908	-9.05633	-191.447	143.795	-20.2735	-190.494	160.927	-29.7049	-214.88	116.837	0.64537	-219.387	132.176	-2.63534	-220.446	152.763	-0.554592	-199.921	97.8223	23.134	-198.405	85.2335	43.2201	-171.659	88.2782	31.6409	
39	0.325	-159.908	54.4596	16.5558	-153.544	43.5851	-8.92654	-150.977	43.9222	-36.751	-158.263	46.9398	-60.6176	-156.368	88.9715	-43.5369	-165.189	73.2987	-60.2039	-178.424	51.7355	-39.3041	-170.262	113.345	-36.9219	-168.607	120.629	-60.5696	-171.208	128.166	-80.274	-184.552	115.717	-22.8992	-183.611	132.26	-39.1041	-182.24	149.403	-51.5464	-207.284	114.786	-9.36368	-208.727	129.313	-15.7999	-208.139	147.992	-18.3563	-187.067	96.7698	15.0846	-191.779	87.5863	36.4716	-163.845	82.0434	23.4645	
40	0.333333	-152.378	43.2635	13.0267	-152.128	30.5489	-11.8339	-153.2	25.7646	-35.642	-162.61	23.9848	-58.101	-155.136	70.4591	-51.8129	-168.076	50.803	-63.5022	-183.148	38.2149	-42.5201	-165.307	93.9634	-48.7599	-165.22	96.8098	-71.7435	-165.165	97.7961	-97.2913	-180.754	104.177	-35.1439	-176.747	114.207	-53.2564	-172.837	126.096	-72.738	-197.417	104.161	-18.5064	-201.047	119.013	-27.9016	-194.895	135.147	-33.8113	-181.843	94.7618	3.55682	-180.861	87.5888	30.0861	-158.047	78.9449	15.3722	
41	0.341667	-148.425	37.6645	14.9316	-154.064	19.7767	-3.89039	-157.442	8.67457	-31.3486	-168.838	7.68155	-50.2009	-152.006	50.559	-51.211	-167.713	33.1458	-64.7833	-185.795	23.2174	-43.2477	-163.176	75.3725	-56.6616	-164.412	72.5577	-79.5575	-171.721	72.1508	-103.723	-177.236	90.0323	-42.7907	-172.861	92.6579	-64.4274	-170.795	98.5965	-84.8133	-194.535	97.9846	-26.2027	-194.285	107.711	-40.0259	-190.91	124.703	-48.7756	-172.885	86.4869	-2.03295	-169.739	84.3488	23.3374	-149.999	70.311	10.7943	
